<?xml version="1.0" encoding="utf-8"?>
<!-- Generator: Adobe Illustrator 25.1.0, SVG Export Plug-In . SVG Version: 6.00 Build 0)  -->
<svg version="1.1" id="Layer_1" xmlns="http://www.w3.org/2000/svg" xmlns:xlink="http://www.w3.org/1999/xlink" x="0px" y="0px"
	 viewBox="0 0 379.4 304.34" enable-background="new 0 0 379.4 304.34" xml:space="preserve">
<path fill="#BF6CAC" d="M355.1,284.97h-20.87c-7.68,0-13.91-6.23-13.91-13.91V26.71c0-7.68,6.23-13.91,13.91-13.91h20.87
	c7.68,0,13.91,6.23,13.91,13.91v244.35C369.01,278.74,362.78,284.97,355.1,284.97z"/>
<polygon fill="#BF6CAC" points="320.94,168.64 256,168.64 232.24,121.68 320.94,121.68 "/>
<path fill="#6D71B5" d="M16.83,281.23l22.01,10.29c5.72,2.67,12.52,0.21,15.19-5.51L156.28,67.36c8.36-17.87,0.64-39.14-17.23-47.49
	l0,0c-5.72-2.67-12.52-0.21-15.19,5.51L11.32,266.03C8.65,271.75,11.12,278.55,16.83,281.23z"/>
<polygon fill="#6D71B5" points="222.95,232.38 107.61,232.38 130.55,189.32 222.95,189.32 "/>
<path fill="#6D71B5" d="M260.72,281.23l-22.01,10.29c-5.72,2.67-12.52,0.21-15.19-5.51L121.27,67.36
	c-8.36-17.87-0.64-39.14,17.23-47.49l0,0c5.72-2.67,12.52-0.21,15.19,5.51l112.54,240.65C268.9,271.75,266.44,278.55,260.72,281.23z
	"/>
<path fill="#6D71B5" d="M133.05,18.85c0,0,1.4,9.23,6.61,4.64s5.2-4.6,5.2-4.6L133.05,18.85z"/>
</svg>
